<svg width="209" height="40" viewBox="0 0 209 40" fill="none" xmlns="http://www.w3.org/2000/svg">
<g clip-path="url(#clip0_13563_17849)">
<path d="M73.119 21.4285C74.015 22.6239 74.4646 24.195 74.4646 26.1419C74.4646 27.9715 73.9492 29.6155 72.9183 31.0757C71.8874 32.5359 70.4599 33.6805 68.6374 34.505C66.8149 35.331 64.7531 35.7447 62.4521 35.7447C59.9712 35.7447 57.7746 35.2945 55.8637 34.3956C53.9513 33.4966 52.4499 32.2568 51.3596 30.6778C50.3689 29.2461 49.8037 27.6369 49.664 25.8518C49.6399 25.5553 49.8839 25.3048 50.1858 25.308L55.1395 25.3809C55.3965 25.3841 55.6068 25.5759 55.6421 25.8264C55.8428 27.2786 56.5157 28.4661 57.6573 29.3936C58.9114 30.4114 60.5557 30.9203 62.587 30.9203C64.2906 30.9203 65.6796 30.5525 66.7555 29.8137C67.8313 29.0765 68.3692 28.0587 68.3692 26.7602C68.3692 25.8454 68.0706 25.1225 67.4732 24.5914C66.8743 24.0602 66.0618 23.648 65.0309 23.3516C64 23.0567 62.4376 22.7174 60.347 22.3337L60.1222 22.2893C58.1503 21.9358 56.4611 21.4554 55.0576 20.8514C53.6526 20.2473 52.5174 19.3547 51.6519 18.1736C50.7848 16.9941 50.3512 15.4292 50.3512 13.4824C50.3512 11.713 50.8362 10.1197 51.8076 8.70234C52.7791 7.28656 54.1392 6.17994 55.8862 5.38407C57.6349 4.58819 59.5987 4.18866 61.7809 4.18866C64.0819 4.18866 66.1356 4.60246 67.9437 5.42846C69.7518 6.25446 71.1712 7.4134 72.2021 8.9021C73.1286 10.2418 73.6746 11.7289 73.8416 13.3666C73.8721 13.6663 73.628 13.9231 73.3245 13.9215L68.3644 13.8851C68.1139 13.8835 67.9052 13.7027 67.8602 13.4586C67.6402 12.2346 67.0397 11.2247 66.0602 10.4289C64.9683 9.54419 63.5424 9.10186 61.7793 9.10186C60.1655 9.10186 58.8665 9.44114 57.8805 10.1197C56.8946 10.7983 56.4016 11.786 56.4016 13.0844C56.4016 13.9691 56.6923 14.6635 57.2752 15.1645C57.8581 15.6671 58.6561 16.065 59.6725 16.3599C60.6874 16.6548 62.2128 16.9798 64.2441 17.3333H64.289C66.3813 17.717 68.1509 18.1958 69.6008 18.7713C71.0492 19.3468 72.223 20.2315 73.119 21.4269V21.4285ZM100.576 31.2073V34.9711C100.576 35.2517 100.346 35.48 100.06 35.48H96.0859C94.705 35.48 93.5858 34.3734 93.5858 33.0099V32.26C93.5858 31.6354 92.7524 31.4197 92.4329 31.9588C91.7809 32.9132 91.0664 33.6964 90.2089 34.3068C89.2551 34.9869 88.3013 35.4641 87.1291 35.6496C86.0083 35.8272 84.8618 35.7638 83.7442 35.5941C82.2814 35.3706 80.8603 34.8601 79.672 33.9754C78.0888 32.7959 77.2971 31.1724 77.2971 29.1066C77.2971 26.7174 78.1643 24.8736 79.8968 23.5751C81.6294 22.2767 84.1697 21.6282 87.5161 21.6282H91.6412C91.9255 21.6282 92.1567 21.4015 92.1567 21.1193V20.4328C92.1567 18.2354 90.4337 16.7594 88.009 16.7594C86.7245 16.7594 85.7482 17.0321 84.926 17.5775C84.2163 18.0484 83.7587 18.6572 83.5499 19.4023C83.4889 19.6195 83.285 19.7685 83.0569 19.7685H78.5015C78.1803 19.7685 77.9411 19.4816 77.994 19.1677C78.3425 17.1542 79.3605 15.5688 81.0482 14.413C82.9012 13.1447 85.2584 12.4978 88.2772 12.4978C91.4742 12.4978 93.5151 13.2113 95.2477 14.6128C96.9803 16.0143 97.8474 18.0579 97.8474 20.742V29.1954C97.8474 29.7265 97.9743 30.1102 98.228 30.3464C98.4817 30.5826 98.8333 30.7 99.2813 30.7H100.055C100.34 30.7 100.571 30.9283 100.571 31.2089L100.576 31.2073ZM92.1583 26.0293C92.1583 25.7487 91.927 25.5204 91.6428 25.5204H87.4278C86.0227 25.5204 84.9405 25.7931 84.1777 26.3385C83.4166 26.8855 83.0345 27.6591 83.0345 28.6611C83.0345 29.5458 83.3781 30.2545 84.0654 30.7856C84.7526 31.3167 85.6631 31.5814 86.7999 31.5814C88.7557 31.5814 90.4915 30.6936 91.463 28.9925C91.9254 28.1807 92.1583 27.2295 92.1583 26.1387V26.0277V26.0293ZM116.667 4.51367H110.74C107.612 4.51367 105.078 7.01704 105.078 10.1038V12.5597C105.078 12.8403 104.847 13.0686 104.563 13.0686H101.178C100.894 13.0686 100.662 13.2969 100.662 13.5775V17.3841C100.662 17.6647 100.894 17.893 101.178 17.893H104.563C104.847 17.893 105.078 18.1197 105.078 18.4019V34.9726C105.078 35.2533 105.309 35.4816 105.594 35.4816H110.212C110.496 35.4816 110.727 35.2533 110.727 34.9726V18.4019C110.727 18.1213 110.958 17.893 111.243 17.893H116.625C116.909 17.893 117.14 17.6647 117.14 17.3841V13.5775C117.14 13.2969 116.909 13.0686 116.625 13.0686H111.243C110.958 13.0686 110.727 12.8403 110.727 12.5597V10.3528C110.727 9.79152 111.188 9.3365 111.756 9.3365H116.668C116.953 9.3365 117.184 9.1082 117.184 8.82759V5.02101C117.184 4.74039 116.953 4.51209 116.668 4.51209L116.667 4.51367ZM38.1379 19.9889H33.7446C32.4328 19.9889 31.3698 21.0384 31.3698 22.3337V28.6278C31.3698 29.9231 30.3068 30.9727 28.9949 30.9727H11.5196C10.2077 30.9727 9.14469 32.0222 9.14469 33.3175V37.6552C9.14469 38.9505 10.2077 40 11.5196 40H30.0081C31.32 40 32.3685 38.9505 32.3685 37.6552V34.1752C32.3685 32.8799 33.4315 31.9604 34.7434 31.9604H38.1379C39.4498 31.9604 40.5128 30.9108 40.5128 29.6155V22.3052C40.5128 21.0099 39.4498 19.9873 38.1379 19.9873V19.9889ZM9.14309 11.3722C9.14309 10.0769 10.2061 9.02735 11.518 9.02735H28.9836C30.2955 9.02735 31.3585 7.9778 31.3585 6.68252V2.34483C31.3585 1.04954 30.2955 0 28.9836 0H10.5064C9.19447 0 8.13147 1.04954 8.13147 2.34483V5.68688C8.13147 6.98216 7.06847 8.03171 5.75658 8.03171H2.37489C1.063 8.03171 0 9.08125 0 10.3765V17.6948C0 18.9901 1.06782 19.9873 2.37971 19.9873H6.77301C8.0849 19.9873 9.14791 18.9378 9.14791 17.6425L9.14309 11.3738V11.3722ZM18.1882 15.4292C16.8121 15.4292 15.6977 16.5311 15.6977 17.8882V22.0547C15.6977 23.4134 16.8137 24.5137 18.1882 24.5137H22.4081C23.7842 24.5137 24.8986 23.4118 24.8986 22.0547V17.8882C24.8986 16.5295 23.7826 15.4292 22.4081 15.4292H18.1882ZM139.293 17.6441C140.294 19.2961 140.795 21.2144 140.795 23.3975C140.795 23.6924 140.787 24.0174 140.772 24.371C140.764 24.566 140.748 24.7578 140.727 24.9449C140.697 25.2002 140.475 25.3888 140.215 25.3888H124.214C123.909 25.3888 123.666 25.6504 123.701 25.9516C123.719 26.0975 123.74 26.2434 123.764 26.3876C123.832 26.7998 123.929 27.2073 124.066 27.6021C124.193 27.9699 124.352 28.3266 124.546 28.6643C125.039 29.5204 125.712 30.1847 126.563 30.6556C127.414 31.128 128.408 31.3642 129.543 31.3642C130.918 31.3642 132.067 31.0551 132.995 30.4352C133.822 29.8819 134.401 29.1288 134.726 28.1744C134.797 27.9667 134.993 27.824 135.215 27.824H139.855C140.188 27.824 140.432 28.13 140.356 28.4503C140.067 29.6821 139.526 30.8141 138.733 31.851C137.806 33.0606 136.589 34.0119 135.08 34.7047C133.57 35.3991 131.859 35.7447 129.948 35.7447C127.467 35.7447 125.309 35.2739 123.47 34.329C121.632 33.3857 120.22 32.0349 119.234 30.2798C118.248 28.5248 117.755 26.4954 117.755 24.195C117.755 21.8946 118.234 19.7765 119.189 18.0214C120.145 16.2663 121.49 14.9092 123.223 13.9501C124.956 12.9909 126.943 12.4994 129.185 12.4994C131.427 12.4994 133.458 12.9544 135.191 13.8407C136.923 14.7253 138.291 15.9952 139.292 17.6472L139.293 17.6441ZM134.99 20.918C134.712 19.7099 134.137 18.7507 133.265 18.042C132.249 17.216 130.964 16.8022 129.41 16.8022C128.453 16.8022 127.573 16.9941 126.765 17.3777C125.959 17.7614 125.301 18.3147 124.793 19.0377C124.398 19.5989 124.122 20.2267 123.962 20.9195C123.888 21.2366 124.137 21.5379 124.466 21.5379H134.487C134.816 21.5379 135.064 21.235 134.99 20.918ZM207.651 13.0686H202.731V7.89378C202.731 7.09631 202.078 6.45105 201.27 6.45105H198.407C197.599 6.45105 196.946 7.09631 196.946 7.89378V13.0686H193.831C193.086 13.0686 192.482 13.6647 192.482 14.4003V16.5501C192.482 17.2858 193.086 17.8819 193.831 17.8819H196.946V29.9073C196.946 30.7047 197.599 31.35 198.407 31.35H200.49C201.297 31.35 201.951 31.7717 201.951 32.5692V34.0452C201.951 34.8426 202.604 35.4879 203.412 35.4879H207.068C207.876 35.4879 208.497 34.8395 208.497 34.042V32.1728C208.497 31.3753 207.844 30.7301 207.036 30.7301L204.033 30.7333C203.226 30.7333 202.733 29.9057 202.733 29.1098V17.8819H207.653C208.398 17.8819 209.002 17.2858 209.002 16.5501V14.4003C209.002 13.6647 208.398 13.0686 207.653 13.0686H207.651ZM190.521 17.9057V23.8256C190.521 24.6786 189.821 25.3714 188.956 25.3714H173.919V29.0115C173.919 29.8644 174.619 30.6936 175.485 30.6936L186.454 30.6904C187.318 30.6904 188.019 31.3817 188.019 32.2362V33.9405C188.019 34.7935 187.355 35.4879 186.489 35.4879H174.82C173.956 35.4879 173.255 34.7967 173.255 33.9421V32.918C173.255 32.065 172.555 31.3722 171.689 31.3722H169.709C168.845 31.3722 168.144 30.6809 168.144 29.8264V17.9041C168.144 17.0511 168.844 16.3583 169.709 16.3583H171.689C172.553 16.3583 173.255 15.6671 173.255 14.8125V13.7233C173.255 12.8704 173.955 12.1776 174.82 12.1776H184.008C184.872 12.1776 185.574 12.8688 185.574 13.7233V14.8125C185.574 15.6655 186.274 16.3583 187.139 16.3583H188.957C189.821 16.3583 190.523 17.0495 190.523 17.9041L190.521 17.9057ZM173.919 18.7237V21.5616H184.907V18.7237C184.907 17.8708 184.207 17.178 183.342 17.178H175.483C174.619 17.178 173.918 17.8692 173.918 18.7237H173.919ZM163.243 16.2981H161.334C160.47 16.2981 159.768 15.6068 159.768 14.7523V13.7424C159.768 12.8894 159.068 12.1966 158.202 12.1966H150.471C149.607 12.1966 148.905 12.8878 148.905 13.7424V14.7523C148.905 15.6052 148.205 16.2981 147.34 16.2981H145.43C144.566 16.2981 143.865 16.9893 143.865 17.8438V33.9437C143.865 34.7967 144.565 35.4895 145.43 35.4895H148.004C148.868 35.4895 149.57 34.7983 149.57 33.9437V18.7348C149.57 17.8819 150.27 17.1891 151.136 17.1891H154.337H157.539C158.403 17.1891 159.105 17.8803 159.105 18.7348V33.9437C159.105 34.7967 159.805 35.4895 160.67 35.4895H163.244C164.108 35.4895 164.81 34.7983 164.81 33.9437V17.8438C164.81 16.9909 164.11 16.2981 163.244 16.2981H163.243Z" fill="url(#paint0_radial_13563_17849)"/>
</g>
<defs>
<radialGradient id="paint0_radial_13563_17849" cx="0" cy="0" r="1" gradientUnits="userSpaceOnUse" gradientTransform="translate(220.227 25.763) rotate(179.372) scale(101.248 515.718)">
<stop stop-color="#FF5F00"/>
<stop offset="0.397908" stop-color="#FFD200"/>
<stop offset="1" stop-color="#12FF80"/>
</radialGradient>
<clipPath id="clip0_13563_17849">
<rect width="209" height="40" fill="white"/>
</clipPath>
</defs>
</svg>
